<svg xmlns="http://www.w3.org/2000/svg" width="1920.001" height="550" viewBox="0 0 1920.001 550"><defs><style>.a{fill:#11223a;}.b{opacity:0.3;}</style></defs><g transform="translate(38 -4085)"><rect class="a" width="1920" height="549" transform="translate(-38 4086)"/><g class="b" transform="translate(-38 4085)"><g transform="translate(402.64 164.336)"><path d="M-78.3-216.578h0a4.572,4.572,0,0,1,0-6.471L-54.05-247.3a4.577,4.577,0,0,1,6.471,0h0a4.572,4.572,0,0,1,0,6.471l-24.249,24.249A4.572,4.572,0,0,1-78.3-216.578Z" transform="translate(79.64 248.637)"/><path d="M-78.3-247.3h0a4.577,4.577,0,0,1,6.471,0l24.249,24.249a4.572,4.572,0,0,1,0,6.471h0a4.572,4.572,0,0,1-6.471,0L-78.3-240.827A4.572,4.572,0,0,1-78.3-247.3Z" transform="translate(79.64 248.637)"/></g><g transform="translate(1030.974 336.481)"><g transform="translate(116.483)"><circle cx="3.168" cy="3.168" r="3.168"/><circle cx="3.168" cy="3.168" r="3.168" transform="translate(0 30.658)"/><circle cx="3.168" cy="3.168" r="3.168" transform="translate(0 61.317)"/><circle cx="3.168" cy="3.168" r="3.168" transform="translate(0 91.975)"/><circle cx="3.168" cy="3.168" r="3.168" transform="translate(0 122.634)"/></g><g transform="translate(93.187)"><circle cx="3.168" cy="3.168" r="3.168"/><circle cx="3.168" cy="3.168" r="3.168" transform="translate(0 30.658)"/><circle cx="3.168" cy="3.168" r="3.168" transform="translate(0 61.317)"/><circle cx="3.168" cy="3.168" r="3.168" transform="translate(0 91.975)"/><circle cx="3.168" cy="3.168" r="3.168" transform="translate(0 122.634)"/></g><g transform="translate(69.89)"><circle cx="3.168" cy="3.168" r="3.168"/><circle cx="3.168" cy="3.168" r="3.168" transform="translate(0 30.658)"/><circle cx="3.168" cy="3.168" r="3.168" transform="translate(0 61.317)"/><circle cx="3.168" cy="3.168" r="3.168" transform="translate(0 91.975)"/><circle cx="3.168" cy="3.168" r="3.168" transform="translate(0 122.634)"/></g><g transform="translate(46.593)"><circle cx="3.168" cy="3.168" r="3.168"/><circle cx="3.168" cy="3.168" r="3.168" transform="translate(0 30.658)"/><circle cx="3.168" cy="3.168" r="3.168" transform="translate(0 61.317)"/><circle cx="3.168" cy="3.168" r="3.168" transform="translate(0 91.975)"/><circle cx="3.168" cy="3.168" r="3.168" transform="translate(0 122.634)"/></g><g transform="translate(23.297)"><circle cx="3.168" cy="3.168" r="3.168"/><circle cx="3.168" cy="3.168" r="3.168" transform="translate(0 30.658)"/><circle cx="3.168" cy="3.168" r="3.168" transform="translate(0 61.317)"/><circle cx="3.168" cy="3.168" r="3.168" transform="translate(0 91.975)"/><circle cx="3.168" cy="3.168" r="3.168" transform="translate(0 122.634)"/></g><circle cx="3.168" cy="3.168" r="3.168"/><circle cx="3.168" cy="3.168" r="3.168" transform="translate(0 30.658)"/><circle cx="3.168" cy="3.168" r="3.168" transform="translate(0 61.317)"/><circle cx="3.168" cy="3.168" r="3.168" transform="translate(0 91.975)"/><circle cx="3.168" cy="3.168" r="3.168" transform="translate(0 122.634)"/></g><g transform="translate(650.392 30.863)"><g transform="translate(89.938)"><circle cx="2.446" cy="2.446" r="2.446" transform="translate(0.001)"/><circle cx="2.446" cy="2.446" r="2.446" transform="translate(0.001 23.672)"/><circle cx="2.446" cy="2.446" r="2.446" transform="translate(0.001 47.344)"/><path d="M46.138-268.254A2.446,2.446,0,0,1,43.69-270.7a2.446,2.446,0,0,1,2.448-2.445,2.445,2.445,0,0,1,2.445,2.445A2.445,2.445,0,0,1,46.138-268.254Z" transform="translate(-43.69 344.161)"/><circle cx="2.446" cy="2.446" r="2.446" transform="translate(0.001 94.687)"/></g><g transform="translate(71.951)"><circle cx="2.446" cy="2.446" r="2.446"/><circle cx="2.446" cy="2.446" r="2.446" transform="translate(0 23.672)"/><circle cx="2.446" cy="2.446" r="2.446" transform="translate(0 47.344)"/><path d="M39.67-268.254a2.445,2.445,0,0,1-2.446-2.445,2.445,2.445,0,0,1,2.446-2.445,2.443,2.443,0,0,1,2.445,2.445A2.444,2.444,0,0,1,39.67-268.254Z" transform="translate(-37.225 344.161)"/><circle cx="2.446" cy="2.446" r="2.446" transform="translate(0 94.687)"/></g><g transform="translate(53.962)"><circle cx="2.446" cy="2.446" r="2.446" transform="translate(0.001)"/><circle cx="2.446" cy="2.446" r="2.446" transform="translate(0.001 23.672)"/><circle cx="2.446" cy="2.446" r="2.446" transform="translate(0.001 47.344)"/><path d="M33.207-268.254a2.446,2.446,0,0,1-2.448-2.445,2.446,2.446,0,0,1,2.448-2.445,2.445,2.445,0,0,1,2.445,2.445A2.445,2.445,0,0,1,33.207-268.254Z" transform="translate(-30.759 344.161)"/><circle cx="2.446" cy="2.446" r="2.446" transform="translate(0.001 94.687)"/></g><g transform="translate(35.976)"><circle cx="2.446" cy="2.446" r="2.446" transform="translate(0)"/><circle cx="2.446" cy="2.446" r="2.446" transform="translate(0 23.672)"/><circle cx="2.446" cy="2.446" r="2.446" transform="translate(0 47.344)"/><path d="M26.739-268.254a2.445,2.445,0,0,1-2.445-2.445,2.445,2.445,0,0,1,2.445-2.445,2.446,2.446,0,0,1,2.448,2.445A2.446,2.446,0,0,1,26.739-268.254Z" transform="translate(-24.294 344.161)"/><circle cx="2.446" cy="2.446" r="2.446" transform="translate(0 94.687)"/></g><g transform="translate(17.988)"><circle cx="2.446" cy="2.446" r="2.446"/><circle cx="2.446" cy="2.446" r="2.446" transform="translate(0 23.672)"/><circle cx="2.446" cy="2.446" r="2.446" transform="translate(0 47.344)"/><path d="M20.274-268.254a2.444,2.444,0,0,1-2.445-2.445,2.443,2.443,0,0,1,2.445-2.445A2.443,2.443,0,0,1,22.72-270.7,2.444,2.444,0,0,1,20.274-268.254Z" transform="translate(-17.828 344.161)"/><circle cx="2.446" cy="2.446" r="2.446" transform="translate(0 94.687)"/></g><g transform="translate(0)"><circle cx="2.446" cy="2.446" r="2.446" transform="translate(0.001)"/><circle cx="2.446" cy="2.446" r="2.446" transform="translate(0.001 23.672)"/><circle cx="2.446" cy="2.446" r="2.446" transform="translate(0.001 47.344)"/><path d="M13.811-268.254a2.446,2.446,0,0,1-2.448-2.445,2.446,2.446,0,0,1,2.448-2.445,2.445,2.445,0,0,1,2.445,2.445A2.445,2.445,0,0,1,13.811-268.254Z" transform="translate(-11.363 344.161)"/><circle cx="2.446" cy="2.446" r="2.446" transform="translate(0.001 94.687)"/></g></g><g transform="translate(1455.112 389.387)"><g transform="translate(68.559)"><circle cx="1.865" cy="1.865" r="1.865"/><circle cx="1.865" cy="1.865" r="1.865" transform="translate(0 18.045)"/><path d="M333.005-147.79a1.864,1.864,0,0,1-1.864-1.864,1.864,1.864,0,0,1,1.864-1.864,1.864,1.864,0,0,1,1.864,1.864A1.864,1.864,0,0,1,333.005-147.79Z" transform="translate(-331.14 187.607)"/><circle cx="1.865" cy="1.865" r="1.865" transform="translate(0 54.134)"/><path d="M333.005-134.818a1.864,1.864,0,0,1-1.864-1.864,1.864,1.864,0,0,1,1.864-1.864,1.864,1.864,0,0,1,1.864,1.864A1.864,1.864,0,0,1,333.005-134.818Z" transform="translate(-331.14 210.725)"/></g><g transform="translate(54.847)"><circle cx="1.865" cy="1.865" r="1.865" transform="translate(0.001)"/><circle cx="1.865" cy="1.865" r="1.865" transform="translate(0.001 18.045)"/><path d="M328.079-147.79a1.865,1.865,0,0,1-1.867-1.864,1.865,1.865,0,0,1,1.867-1.864,1.864,1.864,0,0,1,1.864,1.864A1.864,1.864,0,0,1,328.079-147.79Z" transform="translate(-326.212 187.607)"/><circle cx="1.865" cy="1.865" r="1.865" transform="translate(0.001 54.134)"/><path d="M328.079-134.818a1.865,1.865,0,0,1-1.867-1.864,1.865,1.865,0,0,1,1.867-1.864,1.864,1.864,0,0,1,1.864,1.864A1.864,1.864,0,0,1,328.079-134.818Z" transform="translate(-326.212 210.725)"/></g><g transform="translate(41.136)"><circle cx="1.865" cy="1.865" r="1.865"/><circle cx="1.865" cy="1.865" r="1.865" transform="translate(0 18.045)"/><path d="M323.148-147.79a1.864,1.864,0,0,1-1.864-1.864,1.864,1.864,0,0,1,1.864-1.864,1.864,1.864,0,0,1,1.864,1.864A1.864,1.864,0,0,1,323.148-147.79Z" transform="translate(-321.284 187.607)"/><circle cx="1.865" cy="1.865" r="1.865" transform="translate(0 54.134)"/><path d="M323.148-134.818a1.864,1.864,0,0,1-1.864-1.864,1.864,1.864,0,0,1,1.864-1.864,1.864,1.864,0,0,1,1.864,1.864A1.864,1.864,0,0,1,323.148-134.818Z" transform="translate(-321.284 210.725)"/></g><g transform="translate(27.424)"><circle cx="1.865" cy="1.865" r="1.865" transform="translate(0.001)"/><circle cx="1.865" cy="1.865" r="1.865" transform="translate(0.001 18.045)"/><path d="M318.222-147.79a1.865,1.865,0,0,1-1.867-1.864,1.865,1.865,0,0,1,1.867-1.864,1.864,1.864,0,0,1,1.864,1.864A1.864,1.864,0,0,1,318.222-147.79Z" transform="translate(-316.355 187.607)"/><circle cx="1.865" cy="1.865" r="1.865" transform="translate(0.001 54.134)"/><path d="M318.222-134.818a1.865,1.865,0,0,1-1.867-1.864,1.865,1.865,0,0,1,1.867-1.864,1.864,1.864,0,0,1,1.864,1.864A1.864,1.864,0,0,1,318.222-134.818Z" transform="translate(-316.355 210.725)"/></g><g transform="translate(13.713)"><circle cx="1.865" cy="1.865" r="1.865"/><circle cx="1.865" cy="1.865" r="1.865" transform="translate(0 18.045)"/><path d="M313.291-147.79a1.864,1.864,0,0,1-1.864-1.864,1.864,1.864,0,0,1,1.864-1.864,1.864,1.864,0,0,1,1.864,1.864A1.864,1.864,0,0,1,313.291-147.79Z" transform="translate(-311.427 187.607)"/><circle cx="1.865" cy="1.865" r="1.865" transform="translate(0 54.134)"/><path d="M313.291-134.818a1.864,1.864,0,0,1-1.864-1.864,1.864,1.864,0,0,1,1.864-1.864,1.864,1.864,0,0,1,1.864,1.864A1.864,1.864,0,0,1,313.291-134.818Z" transform="translate(-311.427 210.725)"/></g><circle cx="1.865" cy="1.865" r="1.865" transform="translate(0.001)"/><circle cx="1.865" cy="1.865" r="1.865" transform="translate(0.001 18.045)"/><path d="M308.365-147.79a1.867,1.867,0,0,1-1.867-1.864,1.867,1.867,0,0,1,1.867-1.864,1.864,1.864,0,0,1,1.864,1.864A1.864,1.864,0,0,1,308.365-147.79Z" transform="translate(-306.498 187.607)"/><circle cx="1.865" cy="1.865" r="1.865" transform="translate(0.001 54.134)"/><path d="M308.365-134.818a1.867,1.867,0,0,1-1.867-1.864,1.867,1.867,0,0,1,1.867-1.864,1.864,1.864,0,0,1,1.864,1.864A1.864,1.864,0,0,1,308.365-134.818Z" transform="translate(-306.498 210.725)"/></g><g transform="translate(214.402 268.11)"><path d="M-96.3-80.779l-53.915-35.116,3.453-64.253,57.37-29.132,53.915,35.116-3.453,64.251Zm-49.828-37.192,50.073,32.612,53.283-27.056,3.211-59.674L-89.637-204.7l-53.283,27.059Z" transform="translate(150.215 209.28)"/><rect width="62.051" height="3.971" transform="translate(56.473 62.486) rotate(-26.933)"/><rect width="62.051" height="3.971" transform="translate(55.93 75.868) rotate(-26.933)"/><rect width="62.052" height="3.971" transform="translate(55.386 89.252) rotate(-26.933)"/><rect width="62.052" height="3.971" transform="translate(54.286 101.291) rotate(-26.933)"/><rect width="62.051" height="3.971" transform="translate(53.479 112.685) rotate(-26.933)"/><rect width="62.05" height="3.97" transform="translate(52.065 126.106) rotate(-86.94)"/><rect width="3.968" height="62.052" transform="matrix(0.546, -0.838, 0.838, 0.546, 4.292, 32.047)"/></g><g transform="translate(1000.966 0)"><path d="M193.99-181.263l-53.912-35.116,3.453-64.251,57.37-29.135,53.915,35.116L251.36-210.4Zm-49.828-37.192,50.076,32.612L247.518-212.9l3.211-59.674-50.076-32.615-53.281,27.059Z" transform="translate(-140.078 309.764)"/><rect width="62.051" height="3.971" transform="translate(56.472 62.486) rotate(-26.933)"/><rect width="62.05" height="3.97" transform="translate(52.064 126.106) rotate(-86.94)"/><rect width="3.968" height="62.052" transform="matrix(0.546, -0.838, 0.838, 0.546, 4.29, 32.047)"/><rect width="3.968" height="62.052" transform="matrix(0.546, -0.838, 0.838, 0.546, 3.384, 42.56)"/><rect width="3.968" height="62.051" transform="translate(2.478 53.075) rotate(-56.923)"/><rect width="3.968" height="62.052" transform="matrix(0.546, -0.838, 0.838, 0.546, 1.572, 63.588)"/><rect width="3.968" height="62.052" transform="matrix(0.546, -0.838, 0.838, 0.546, 1.387, 74.26)"/><rect width="3.968" height="62.05" transform="matrix(0.546, -0.838, 0.838, 0.546, 0.67, 84.436)"/></g><path d="M40.785-168.387A43.487,43.487,0,0,1,8.329-182.829a43.682,43.682,0,0,1,3.305-61.619l9.059,10.088a30.108,30.108,0,0,0-2.276,42.469,30.093,30.093,0,0,0,42.45,2.259l9.061,10.088A43.5,43.5,0,0,1,40.785-168.387Z" transform="translate(614.701 419.516)"/><path d="M-40.011-114.582A21.438,21.438,0,0,1-38.4-144.824a21.352,21.352,0,0,1,15.463-5.459A21.293,21.293,0,0,1-8.145-143.2l-4.955,4.449a14.682,14.682,0,0,0-10.191-4.883,14.685,14.685,0,0,0-10.658,3.764,14.776,14.776,0,0,0-1.11,20.844Z" transform="translate(541.247 578.927)"/><path d="M230.958-73.337a43.672,43.672,0,0,1,3.283-61.6,43.687,43.687,0,0,1,61.619,3.305l-10.088,9.061a30.108,30.108,0,0,0-42.469-2.279A30.093,30.093,0,0,0,241.046-82.4Z" transform="translate(998.918 583.454)"/><g transform="translate(1362.177 255.339)"><circle cx="11.06" cy="11.06" r="11.06" transform="translate(26.305)"/><path d="M292.94-171.235a11.06,11.06,0,0,1-11.059-11.059,11.058,11.058,0,0,1,11.059-11.059A11.057,11.057,0,0,1,304-182.294,11.058,11.058,0,0,1,292.94-171.235Z" transform="translate(-255.576 252.088)"/><path d="M302.777-181.836A11.058,11.058,0,0,1,291.718-192.9a11.06,11.06,0,0,1,11.059-11.059A11.058,11.058,0,0,1,313.836-192.9,11.057,11.057,0,0,1,302.777-181.836Z" transform="translate(-238.045 233.196)"/><path d="M283.485-181.836A11.058,11.058,0,0,1,272.426-192.9a11.06,11.06,0,0,1,11.059-11.059A11.058,11.058,0,0,1,294.544-192.9,11.057,11.057,0,0,1,283.485-181.836Z" transform="translate(-272.426 233.196)"/></g><g transform="translate(1193.546 31.399)"><path d="M224.481-282.088a8.2,8.2,0,0,1-8.193-8.2,8.2,8.2,0,0,1,8.193-8.193,8.2,8.2,0,0,1,8.2,8.193A8.207,8.207,0,0,1,224.481-282.088Zm0-13.677A5.489,5.489,0,0,0,219-290.285a5.489,5.489,0,0,0,5.484,5.484,5.489,5.489,0,0,0,5.484-5.484A5.489,5.489,0,0,0,224.481-295.765Z" transform="translate(-200.021 298.478)"/><path d="M224.481-269.034a8.2,8.2,0,0,1-8.193-8.193,8.2,8.2,0,0,1,8.193-8.2,8.205,8.205,0,0,1,8.2,8.2A8.2,8.2,0,0,1,224.481-269.034Zm0-13.677A5.489,5.489,0,0,0,219-277.228a5.491,5.491,0,0,0,5.484,5.484,5.491,5.491,0,0,0,5.484-5.484A5.489,5.489,0,0,0,224.481-282.711Z" transform="translate(-200.021 321.742)"/><path d="M230.564-275.589a8.2,8.2,0,0,1-8.193-8.193,8.2,8.2,0,0,1,8.193-8.2,8.207,8.207,0,0,1,8.2,8.2A8.2,8.2,0,0,1,230.564-275.589Zm0-13.677a5.489,5.489,0,0,0-5.484,5.484,5.491,5.491,0,0,0,5.484,5.484,5.491,5.491,0,0,0,5.484-5.484A5.489,5.489,0,0,0,230.564-289.266Z" transform="translate(-189.18 310.06)"/><path d="M218.637-275.589a8.2,8.2,0,0,1-8.2-8.193,8.205,8.205,0,0,1,8.2-8.2,8.2,8.2,0,0,1,8.193,8.2A8.2,8.2,0,0,1,218.637-275.589Zm0-13.677a5.489,5.489,0,0,0-5.484,5.484,5.491,5.491,0,0,0,5.484,5.484,5.49,5.49,0,0,0,5.481-5.484A5.489,5.489,0,0,0,218.637-289.266Z" transform="translate(-210.441 310.06)"/></g><g transform="translate(522.935 31.109)"><circle cx="7.078" cy="7.078" r="7.078" transform="translate(16.835)"/><circle cx="7.078" cy="7.078" r="7.078" transform="translate(16.835 37.588)"/><circle cx="7.078" cy="7.078" r="7.078" transform="translate(34.349 18.714)"/><circle cx="7.078" cy="7.078" r="7.078" transform="translate(0 18.714)"/></g><g transform="translate(1857.463 187.048)"><path d="M455.361-208.127h0a4.572,4.572,0,0,1,0-6.471L479.61-238.85a4.577,4.577,0,0,1,6.471,0h0a4.581,4.581,0,0,1,0,6.474l-24.249,24.249A4.577,4.577,0,0,1,455.361-208.127Z" transform="translate(-454.02 240.189)"/><path d="M455.361-238.85h0a4.577,4.577,0,0,1,6.471,0L486.082-214.6a4.577,4.577,0,0,1,0,6.471h0a4.577,4.577,0,0,1-6.471,0l-24.249-24.249A4.576,4.576,0,0,1,455.361-238.85Z" transform="translate(-454.02 240.189)"/></g><g transform="translate(1224.651 140.64)"><path d="M223.111-225.392h0a4.577,4.577,0,0,1,0-6.471l24.249-24.249a4.581,4.581,0,0,1,6.474,0h0a4.577,4.577,0,0,1,0,6.471l-24.252,24.249A4.572,4.572,0,0,1,223.111-225.392Z" transform="translate(-221.771 257.451)"/><path d="M223.111-256.112h0a4.577,4.577,0,0,1,6.471,0l24.252,24.249a4.577,4.577,0,0,1,0,6.471h0a4.576,4.576,0,0,1-6.474,0l-24.249-24.249A4.577,4.577,0,0,1,223.111-256.112Z" transform="translate(-221.771 257.451)"/></g><g transform="translate(821.886 332.414)"><path d="M75.341-155.974h0a4.305,4.305,0,0,1,0-6.087l22.811-22.811a4.3,4.3,0,0,1,6.087,0h0a4.3,4.3,0,0,1,0,6.087L81.429-155.974A4.305,4.305,0,0,1,75.341-155.974Z" transform="translate(-74.081 186.135)"/><path d="M75.341-184.872h0a4.3,4.3,0,0,1,6.087,0l22.811,22.811a4.3,4.3,0,0,1,0,6.087h0a4.305,4.305,0,0,1-6.087,0L75.341-178.785A4.305,4.305,0,0,1,75.341-184.872Z" transform="translate(-74.081 186.135)"/></g><path d="M593.336-171.875c-10.358,0-15.611-6.293-20.246-11.846-4.412-5.283-8.221-9.849-15.975-9.849s-11.574,4.565-15.986,9.849c-4.638,5.553-9.89,11.846-20.251,11.846s-15.611-6.293-20.245-11.846c-4.412-5.283-8.221-9.849-15.978-9.849s-11.576,4.565-15.989,9.849c-4.641,5.553-9.9,11.846-20.262,11.846s-15.622-6.293-20.259-11.846c-4.415-5.283-8.227-9.849-15.986-9.849a2.781,2.781,0,0,1-2.782-2.782,2.781,2.781,0,0,1,2.782-2.782c10.363,0,15.619,6.293,20.257,11.846,4.415,5.283,8.227,9.849,15.989,9.849s11.574-4.565,15.989-9.849c4.641-5.553,9.9-11.846,20.262-11.846s15.613,6.293,20.248,11.849c4.412,5.283,8.221,9.846,15.975,9.846s11.568-4.563,15.981-9.846c4.638-5.556,9.893-11.849,20.257-11.849s15.611,6.293,20.246,11.849c4.412,5.28,8.221,9.846,15.975,9.846a2.781,2.781,0,0,1,2.782,2.782A2.781,2.781,0,0,1,593.336-171.875Z" transform="translate(1323.882 496.675)"/><path d="M593.336-162.163c-10.358,0-15.611-6.293-20.246-11.846-4.412-5.283-8.221-9.846-15.975-9.846s-11.574,4.563-15.986,9.849c-4.638,5.55-9.89,11.844-20.251,11.844s-15.611-6.293-20.245-11.844c-4.412-5.286-8.221-9.849-15.978-9.849s-11.576,4.563-15.989,9.849c-4.641,5.55-9.9,11.844-20.262,11.844s-15.622-6.293-20.259-11.846c-4.415-5.283-8.227-9.846-15.986-9.846a2.781,2.781,0,0,1-2.782-2.782,2.78,2.78,0,0,1,2.782-2.782c10.363,0,15.619,6.29,20.257,11.844,4.415,5.283,8.227,9.849,15.989,9.849s11.574-4.566,15.989-9.849c4.641-5.553,9.9-11.844,20.262-11.844s15.613,6.293,20.248,11.844c4.412,5.286,8.221,9.849,15.975,9.849s11.568-4.563,15.981-9.849c4.638-5.55,9.893-11.844,20.257-11.844s15.611,6.293,20.246,11.844c4.412,5.286,8.221,9.849,15.975,9.849a2.781,2.781,0,0,1,2.782,2.782A2.781,2.781,0,0,1,593.336-162.163Z" transform="translate(1323.882 513.087)"/><g transform="translate(179.233 63.511)"><path d="M19.438-238.5c-10.274,0-15.483-6.243-20.079-11.749C-5.009-255.481-8.782-260-16.452-260s-11.446,4.518-15.814,9.746c-4.6,5.506-9.81,11.749-20.087,11.749s-15.485-6.243-20.081-11.749C-76.8-255.483-80.572-260-88.245-260s-11.451,4.518-15.822,9.749c-4.6,5.5-9.813,11.746-20.093,11.746s-15.494-6.243-20.093-11.746c-4.371-5.23-8.143-9.749-15.822-9.749a2.783,2.783,0,0,1-2.782-2.782,2.781,2.781,0,0,1,2.782-2.782c10.28,0,15.494,6.24,20.093,11.743,4.371,5.233,8.143,9.751,15.822,9.751s11.451-4.518,15.822-9.751c4.6-5.5,9.815-11.743,20.093-11.743s15.485,6.24,20.081,11.746c4.368,5.23,8.138,9.749,15.811,9.749s11.446-4.518,15.814-9.749c4.6-5.506,9.81-11.746,20.087-11.746s15.485,6.24,20.081,11.746c4.368,5.23,8.138,9.749,15.808,9.749a2.781,2.781,0,0,1,2.782,2.782A2.783,2.783,0,0,1,19.438-238.5Z" transform="translate(162.856 325.026)"/><path d="M19.438-249.191c-10.272,0-15.483-6.24-20.079-11.746-4.368-5.23-8.141-9.749-15.811-9.749s-11.446,4.518-15.814,9.749c-4.6,5.506-9.81,11.746-20.087,11.746s-15.485-6.24-20.081-11.746c-4.368-5.23-8.138-9.749-15.811-9.749s-11.451,4.518-15.822,9.749c-4.6,5.506-9.813,11.746-20.093,11.746s-15.494-6.24-20.093-11.746c-4.371-5.23-8.143-9.749-15.822-9.749a2.781,2.781,0,0,1-2.782-2.782,2.783,2.783,0,0,1,2.782-2.782c10.28,0,15.494,6.24,20.093,11.746,4.371,5.233,8.143,9.749,15.822,9.749s11.451-4.515,15.822-9.749c4.6-5.506,9.815-11.746,20.093-11.746s15.485,6.243,20.081,11.746c4.368,5.233,8.138,9.749,15.811,9.749s11.446-4.515,15.814-9.749c4.6-5.506,9.81-11.746,20.087-11.746S-.967-270.007,3.63-264.5c4.368,5.23,8.138,9.746,15.808,9.746a2.783,2.783,0,0,1,2.782,2.782A2.783,2.783,0,0,1,19.438-249.191Z" transform="translate(162.856 305.98)"/><path d="M19.438-259.877c-10.274,0-15.483-6.24-20.079-11.746-4.368-5.23-8.141-9.749-15.811-9.749s-11.446,4.518-15.814,9.749c-4.6,5.506-9.81,11.746-20.087,11.746s-15.485-6.24-20.081-11.746c-4.368-5.23-8.138-9.749-15.811-9.749s-11.451,4.518-15.822,9.749c-4.6,5.506-9.813,11.746-20.093,11.746s-15.494-6.24-20.093-11.746c-4.371-5.23-8.143-9.749-15.822-9.749a2.783,2.783,0,0,1-2.782-2.782,2.783,2.783,0,0,1,2.782-2.782c10.28,0,15.494,6.24,20.093,11.746,4.371,5.23,8.143,9.749,15.822,9.749s11.451-4.518,15.822-9.749c4.6-5.506,9.815-11.746,20.093-11.746s15.485,6.24,20.081,11.746c4.368,5.233,8.138,9.749,15.811,9.749s11.446-4.518,15.814-9.749c4.6-5.506,9.81-11.746,20.087-11.746S-.967-280.7,3.63-275.19c4.368,5.233,8.138,9.749,15.808,9.749a2.783,2.783,0,0,1,2.782,2.782A2.783,2.783,0,0,1,19.438-259.877Z" transform="translate(162.856 286.936)"/></g><g transform="translate(1627.067 402.157)"><path d="M433.594-133.169,412.366-154.4a73.97,73.97,0,0,1,11.693,9.534A73.968,73.968,0,0,1,433.594-133.169Z" transform="translate(-297.856 166.491)"/><path d="M456.677-105.918l-51.909-51.909q2.971.814,5.876,1.872L454.8-111.8Q455.869-108.888,456.677-105.918Z" transform="translate(-311.397 160.378)"/><path d="M468.018-90.408l-68.276-68.276c1.494.111,2.982.262,4.465.47l63.341,63.341C467.757-93.39,467.907-91.9,468.018-90.408Z" transform="translate(-320.354 158.851)"/><path d="M475.373-78.741l-79.786-79.786c1.255-.106,2.523-.178,3.789-.217L475.59-82.53C475.548-81.264,475.479-80,475.373-78.741Z" transform="translate(-327.759 158.744)"/><path d="M480.3-69.361l-88.33-88.33c1.1-.25,2.212-.476,3.33-.665l85.665,85.665C480.773-71.573,480.544-70.46,480.3-69.361Z" transform="translate(-334.21 159.435)"/><path d="M483.443-61.826l-94.707-94.707q1.477-.547,2.988-1.007L484.45-64.814Q483.987-63.3,483.443-61.826Z" transform="translate(-339.968 160.89)"/><path d="M485.151-55.761l-99.333-99.333c.893-.459,1.8-.89,2.713-1.294l97.914,97.914C486.041-57.561,485.61-56.654,485.151-55.761Z" transform="translate(-345.168 162.943)"/><path d="M485.616-50.971,383.175-153.411c.807-.531,1.633-1.046,2.457-1.539L487.154-53.427C486.662-52.6,486.147-51.777,485.616-50.971Z" transform="translate(-349.878 165.505)"/><path d="M484.928-47.328,380.782-151.475c.732-.62,1.472-1.207,2.226-1.783l103.7,103.7C486.136-48.8,485.549-48.06,484.928-47.328Z" transform="translate(-354.143 168.521)"/><path d="M483.188-44.758,378.622-149.325c.326-.339.654-.676.99-1.013s.676-.665,1.013-.99L485.191-46.762c-.326.337-.651.676-.99,1.013S483.528-45.084,483.188-44.758Z" transform="translate(-357.992 171.96)"/><path d="M480.4-43.245l-103.7-103.7c.573-.751,1.16-1.494,1.775-2.217L482.614-45.02C481.891-44.4,481.148-43.821,480.4-43.245Z" transform="translate(-361.43 175.813)"/><path d="M476.521-42.79,375-144.313c.5-.832,1.013-1.655,1.544-2.462L478.983-44.334C478.176-43.8,477.35-43.288,476.521-42.79Z" transform="translate(-364.451 180.074)"/><path d="M471.476-43.509l-97.914-97.914c.4-.913.835-1.811,1.288-2.707L474.183-44.8C473.288-44.343,472.389-43.912,471.476-43.509Z" transform="translate(-367.01 184.788)"/><path d="M465.136-45.5,372.41-138.226c.312-1.007.643-2,1.007-2.988l94.706,94.707C467.139-46.143,466.143-45.812,465.136-45.5Z" transform="translate(-369.063 189.985)"/><path d="M457.246-48.989,371.595-134.64c.192-1.124.409-2.237.662-3.344L460.59-49.651C459.483-49.4,458.37-49.181,457.246-48.989Z" transform="translate(-370.516 195.741)"/><path d="M447.418-54.368l-76.211-76.211c.033-1.263.106-2.529.214-3.781L451.2-54.582C449.947-54.474,448.681-54.4,447.418-54.368Z" transform="translate(-371.207 202.199)"/><path d="M435.066-62.4l-63.33-63.327q-.3-2.233-.47-4.479L439.542-61.93Q437.3-62.1,435.066-62.4Z" transform="translate(-371.102 209.597)"/><path d="M418.151-75.156,373.99-119.317q-1.056-2.9-1.864-5.859L424.01-73.292Q421.047-74.1,418.151-75.156Z" transform="translate(-369.569 218.567)"/><path d="M385.085-105.889a73.968,73.968,0,0,1-9.534-11.693l21.228,21.228A74.124,74.124,0,0,1,385.085-105.889Z" transform="translate(-363.465 232.1)"/></g><g transform="translate(0 327.223)"><path d="M-163.006-159.33l-21.868-21.87a76.391,76.391,0,0,1,12.047,9.824A76.277,76.277,0,0,1-163.006-159.33Z" transform="translate(302.85 193.658)"/><path d="M-139.227-131.255-192.7-184.733c2.039.559,4.059,1.2,6.054,1.928l45.5,45.493C-140.423-135.314-139.786-133.3-139.227-131.255Z" transform="translate(288.9 187.362)"/><path d="M-127.538-115.275l-70.343-70.341c1.539.114,3.074.267,4.6.484l65.255,65.255C-127.807-118.347-127.652-116.814-127.538-115.275Z" transform="translate(279.67 185.788)"/><path d="M-119.961-103.255l-82.2-82.2c1.294-.108,2.6-.181,3.906-.223l78.517,78.517C-119.778-105.853-119.853-104.548-119.961-103.255Z" transform="translate(272.041 185.678)"/><path d="M-114.89-93.59l-91-91c1.135-.256,2.279-.49,3.43-.684l88.255,88.255C-114.4-95.871-114.632-94.725-114.89-93.59Z" transform="translate(265.395 186.391)"/><path d="M-111.65-85.831-209.219-183.4c1.015-.376,2.039-.718,3.077-1.038l95.53,95.53C-110.932-87.87-111.274-86.844-111.65-85.831Z" transform="translate(259.464 187.888)"/><path d="M-109.89-79.58-212.225-181.918c.915-.473,1.853-.918,2.793-1.333L-108.554-82.374C-108.972-81.433-109.417-80.5-109.89-79.58Z" transform="translate(254.107 190.003)"/><path d="M-109.409-74.644l-105.54-105.54c.832-.548,1.683-1.077,2.532-1.586L-107.823-77.176C-108.329-76.324-108.861-75.476-109.409-74.644Z" transform="translate(249.253 192.643)"/><path d="M-110.118-70.894l-107.3-107.3c.751-.64,1.516-1.244,2.292-1.836L-108.282-73.184C-108.875-72.41-109.478-71.645-110.118-70.894Z" transform="translate(244.86 195.751)"/><path d="M-111.908-68.244-219.64-175.974c.337-.348.673-.7,1.021-1.043s.7-.684,1.043-1.021l107.73,107.73c-.334.348-.671.7-1.018,1.043S-111.56-68.581-111.908-68.244Z" transform="translate(240.893 199.293)"/><path d="M-114.788-66.682-221.627-173.524c.593-.776,1.2-1.539,1.828-2.287l107.3,107.3C-113.246-67.881-114.011-67.277-114.788-66.682Z" transform="translate(237.352 203.262)"/><path d="M-118.779-66.216-223.373-170.811c.512-.854,1.043-1.7,1.591-2.537l105.54,105.543C-117.073-67.26-117.925-66.728-118.779-66.216Z" transform="translate(234.24 207.652)"/><path d="M-123.976-66.957-224.853-167.834c.417-.94.862-1.864,1.33-2.788L-121.188-68.284C-122.112-67.817-123.035-67.374-123.976-66.957Z" transform="translate(231.602 212.51)"/><path d="M-130.509-69.008l-95.53-95.53c.317-1.038.659-2.064,1.038-3.08l97.569,97.572C-128.447-69.67-129.471-69.328-130.509-69.008Z" transform="translate(229.489 217.863)"/><path d="M-138.638-72.6l-88.241-88.244c.2-1.157.42-2.3.682-3.444l91,91C-136.335-73.025-137.481-72.8-138.638-72.6Z" transform="translate(227.992 223.794)"/><path d="M-148.762-78.146l-78.517-78.517c.033-1.3.109-2.6.223-3.892l82.19,82.187C-146.158-78.255-147.462-78.18-148.762-78.146Z" transform="translate(227.279 230.449)"/><path d="M-161.487-86.421l-65.244-65.247q-.317-2.3-.487-4.613l70.343,70.343Q-159.187-86.108-161.487-86.421Z" transform="translate(227.388 238.069)"/><path d="M-178.916-99.562l-45.5-45.5c-.723-1.989-1.369-4-1.92-6.037l53.453,53.456C-174.913-98.193-176.927-98.838-178.916-99.562Z" transform="translate(228.967 247.309)"/><path d="M-212.98-131.224a76.447,76.447,0,0,1-9.824-12.047l21.87,21.87A76.542,76.542,0,0,1-212.98-131.224Z" transform="translate(235.254 261.253)"/></g><g transform="translate(754.694 385.328)"><path d="M50.717-136.025h0a4.342,4.342,0,0,1,0-6.143l23.014-23.014a4.344,4.344,0,0,1,6.14,0h0a4.342,4.342,0,0,1,0,6.143L56.857-136.025A4.339,4.339,0,0,1,50.717-136.025Z" transform="translate(-49.444 166.453)"/><path d="M50.717-165.182h0a4.344,4.344,0,0,1,6.14,0l23.014,23.014a4.342,4.342,0,0,1,0,6.143h0a4.339,4.339,0,0,1-6.14,0L50.717-159.039A4.342,4.342,0,0,1,50.717-165.182Z" transform="translate(-49.444 166.453)"/></g><g transform="translate(754.66 186.644)"><path d="M50.9-205.587h0a4.96,4.96,0,0,1,0-7.014l26.274-26.274a4.96,4.96,0,0,1,7.014,0h0a4.957,4.957,0,0,1,0,7.011L57.908-205.587A4.957,4.957,0,0,1,50.9-205.587Z" transform="translate(-49.445 240.327)"/><path d="M50.9-238.875h0a4.957,4.957,0,0,1,7.011,0L84.185-212.6a4.96,4.96,0,0,1,0,7.014h0a4.96,4.96,0,0,1-7.014,0L50.9-231.864A4.957,4.957,0,0,1,50.9-238.875Z" transform="translate(-49.445 240.327)"/></g><g transform="translate(922.003 139.404)"><path d="M170.215-233.266l-20.081-20.081a70.167,70.167,0,0,1,11.059,9.02A69.929,69.929,0,0,1,170.215-233.266Z" transform="translate(-41.806 264.784)"/><path d="M192.048-207.486l-49.1-49.1q2.809.768,5.559,1.769l41.774,41.774Q191.284-210.3,192.048-207.486Z" transform="translate(-54.616 259.003)"/><path d="M202.778-192.812,138.191-257.4c1.413.106,2.821.245,4.223.445l59.922,59.919C202.533-195.636,202.675-194.225,202.778-192.812Z" transform="translate(-63.09 257.558)"/><path d="M209.739-181.778,134.26-257.255c1.188-.1,2.387-.167,3.586-.2l72.1,72.1C209.906-184.165,209.837-182.966,209.739-181.778Z" transform="translate(-70.096 257.458)"/><path d="M214.395-172.9l-83.559-83.561c1.041-.234,2.092-.451,3.149-.626l81.038,81.035C214.845-175,214.631-173.944,214.395-172.9Z" transform="translate(-76.198 258.112)"/><path d="M217.37-165.775l-89.59-89.593c.932-.345,1.872-.659,2.827-.952L218.324-168.6C218.03-167.651,217.715-166.708,217.37-165.775Z" transform="translate(-81.644 259.486)"/><path d="M218.988-160.038,125.019-254c.843-.434,1.7-.843,2.565-1.227L220.212-162.6Q219.641-161.3,218.988-160.038Z" transform="translate(-86.564 261.427)"/><path d="M219.429-155.5l-96.91-96.91c.762-.5,1.544-.99,2.323-1.455l96.042,96.039C220.417-157.049,219.93-156.27,219.429-155.5Z" transform="translate(-91.02 263.852)"/><path d="M218.776-152.062l-98.521-98.521c.69-.587,1.394-1.141,2.1-1.686l98.1,98.1C219.919-153.453,219.363-152.752,218.776-152.062Z" transform="translate(-95.054 266.706)"/><path d="M217.131-149.628l-98.919-98.921c.309-.317.618-.637.935-.957s.64-.629.96-.938l98.919,98.921c-.309.32-.618.637-.938.957S217.451-149.937,217.131-149.628Z" transform="translate(-98.695 269.958)"/><path d="M214.489-148.2l-98.1-98.1c.545-.712,1.1-1.413,1.68-2.1l98.524,98.521C215.9-149.3,215.2-148.742,214.489-148.2Z" transform="translate(-101.949 273.604)"/><path d="M210.825-147.766l-96.042-96.039q.709-1.181,1.461-2.331l96.91,96.91C212.389-148.723,211.61-148.237,210.825-147.766Z" transform="translate(-104.806 277.634)"/><path d="M206.05-148.446l-92.625-92.628c.381-.862.79-1.711,1.219-2.56l93.969,93.966C207.764-149.236,206.916-148.83,206.05-148.446Z" transform="translate(-107.226 282.094)"/><path d="M200.053-150.331l-87.718-87.715c.295-.954.609-1.9.954-2.829l89.59,89.593C201.947-150.938,201-150.624,200.053-150.331Z" transform="translate(-109.169 287.009)"/><path d="M192.591-153.63l-81.027-81.027c.184-1.063.387-2.114.629-3.163l83.559,83.561C194.705-154.017,193.654-153.814,192.591-153.63Z" transform="translate(-110.543 292.456)"/><path d="M183.293-158.72l-72.1-72.1c.031-1.194.1-2.393.2-3.575l75.468,75.465C185.686-158.82,184.487-158.753,183.293-158.72Z" transform="translate(-111.197 298.566)"/><path d="M171.609-166.322,111.7-226.23q-.288-2.112-.445-4.234l64.59,64.587Q173.723-166.031,171.609-166.322Z" transform="translate(-111.097 305.565)"/><path d="M155.606-178.386,113.83-220.159q-1-2.742-1.764-5.545l49.082,49.082C159.282-177.128,157.431-177.721,155.606-178.386Z" transform="translate(-109.648 314.048)"/><path d="M124.326-207.458a70.062,70.062,0,0,1-9.02-11.062l20.081,20.081A70.318,70.318,0,0,1,124.326-207.458Z" transform="translate(-103.874 326.851)"/></g><g transform="translate(1480.671 52.986)"><path d="M316.9-260.558h0a4.305,4.305,0,0,1,0-6.087l22.811-22.811a4.3,4.3,0,0,1,6.09,0h0a4.305,4.305,0,0,1,0,6.087l-22.813,22.811A4.305,4.305,0,0,1,316.9-260.558Z" transform="translate(-315.637 290.719)"/><path d="M316.9-289.456h0a4.3,4.3,0,0,1,6.087,0L345.8-266.646a4.305,4.305,0,0,1,0,6.087h0a4.309,4.309,0,0,1-6.09,0L316.9-283.369A4.305,4.305,0,0,1,316.9-289.456Z" transform="translate(-315.637 290.719)"/></g><g transform="translate(1527.04 96.923)"><path d="M333.9-243.559h0a4.305,4.305,0,0,1,0-6.087l22.811-22.811a4.305,4.305,0,0,1,6.087,0h0a4.305,4.305,0,0,1,0,6.087l-22.811,22.811A4.305,4.305,0,0,1,333.9-243.559Z" transform="translate(-332.639 273.717)"/><path d="M333.9-272.457h0a4.305,4.305,0,0,1,6.087,0L362.8-249.646a4.305,4.305,0,0,1,0,6.087h0a4.305,4.305,0,0,1-6.087,0L333.9-266.369A4.305,4.305,0,0,1,333.9-272.457Z" transform="translate(-332.639 273.717)"/></g><path d="M398.718-164.888l-4.449-4.952a27.762,27.762,0,0,0,9.237-19.289,27.775,27.775,0,0,0-7.119-20.168,27.963,27.963,0,0,0-39.442-2.1l-4.446-4.955a34.623,34.623,0,0,1,48.84,2.6A34.636,34.636,0,0,1,398.718-164.888Z" transform="translate(1222.518 452.134)"/><g transform="translate(1688.887 82.853)"><circle cx="8.43" cy="8.43" r="8.43" transform="translate(0)"/><circle cx="8.43" cy="8.43" r="8.43" transform="translate(30.292 30.292)"/><circle cx="8.43" cy="8.43" r="8.43" transform="translate(30.292)"/><circle cx="8.43" cy="8.43" r="8.43" transform="translate(0 30.292)"/></g><g transform="translate(40.431 103.547)"><circle cx="6.569" cy="6.569" r="6.569"/><circle cx="6.569" cy="6.569" r="6.569" transform="translate(23.605 23.605)"/><circle cx="6.569" cy="6.569" r="6.569" transform="translate(23.605)"/><circle cx="6.569" cy="6.569" r="6.569" transform="translate(0 23.605)"/></g><g transform="translate(92.3 239)"><circle cx="6.569" cy="6.569" r="6.569"/><circle cx="6.569" cy="6.569" r="6.569" transform="translate(23.605 23.605)"/><circle cx="6.569" cy="6.569" r="6.569" transform="translate(23.605)"/><circle cx="6.569" cy="6.569" r="6.569" transform="translate(0 23.605)"/></g></g></g></svg>